<svg width="373" height="180" viewBox="0 0 373 180" fill="none" xmlns="http://www.w3.org/2000/svg">
<path d="M113.498 179.991C110.042 179.934 106.609 179.947 103.197 179.961C95.7765 179.991 88.4535 180.02 81.2032 179.311C41.7829 175.457 7.72953 145.407 1.25653 104.369C-2.89004 78.0802 3.17917 54.2214 20.1634 33.6655C36.5838 13.7921 57.1965 2.67888 83.0764 0.76474C88.9462 0.330605 95.1478 0.0156994 101.039 0.0163044C120.031 0.0182329 139.357 0.0175874 158.571 0.0169457C166.423 0.0166834 174.258 0.0164218 182.043 0.0163367C184.323 0.0163118 185.769 2.45952 184.673 4.4588L161.662 46.4194C159.417 50.1616 156.423 52.4575 149.687 52.4069C144.222 52.3658 139.176 52.3804 134.061 52.3952C130.384 52.4059 126.672 52.4166 122.744 52.4069C118.662 52.3967 114.553 52.4085 110.438 52.4203C104.548 52.4373 98.6481 52.4542 92.8061 52.4069C79.8608 52.3019 69.2492 59.9631 62.0207 70.7663C54.9136 81.3883 54.1516 92.8657 59.7314 104.331C65.5194 116.223 75.3611 123.237 88.589 123.676C107.378 124.299 126.214 124.351 145.004 123.798C155.551 123.488 163.955 117.928 169.366 108.722C176.517 96.5568 183.615 84.3605 190.713 72.1641C200.307 55.6805 209.9 39.197 219.623 22.7907C228.337 8.08889 241.991 0.671205 258.764 0.324254C275.818 -0.0285526 292.803 -0.0101865 309.769 0.00816097C313.54 0.0122384 317.31 0.0163149 321.079 0.0163164C324.064 0.0325439 337.945 0.0251806 350.848 0.0183356C357.867 0.0146123 364.597 0.0110424 369.126 0.0115062C371.413 0.0117403 372.856 2.45145 371.739 4.44661C365.42 15.7357 349.081 44.9056 347.275 47.9162C345.029 51.6584 342.035 53.9037 335.3 53.9037C333.752 53.9037 330.834 53.8883 327.009 53.8681C314.183 53.8003 291.162 53.6785 275.425 53.9037C266.708 54.0285 259.535 58.0694 254.106 64.4672C252.573 66.273 253.97 68.8725 256.339 68.8725H330.178C332.471 68.8725 333.916 71.3397 332.795 73.3395L307.642 118.207C307.619 118.249 307.597 118.289 307.575 118.331C307.241 118.965 304.3 124.257 299.375 124.257H224C224 124.257 218.5 124.257 216 128.5C190.234 172.822 170.669 179.992 122.578 179.992L113.498 179.991Z" fill="white"/>
</svg>
