<svg width="1009" height="180" viewBox="0 0 1009 180" fill="none" xmlns="http://www.w3.org/2000/svg">
<path d="M492.728 120.152C483.341 131.416 471.096 137.048 455.992 137.048C449.165 137.048 442.808 135.811 436.92 133.336C431.032 130.861 425.912 127.491 421.56 123.224C417.293 118.872 413.923 113.795 411.448 107.992C408.973 102.189 407.736 95.9173 407.736 89.176C407.736 82.4347 408.973 76.1627 411.448 70.36C413.923 64.5573 417.293 59.5227 421.56 55.256C425.912 50.904 431.032 47.4907 436.92 45.016C442.808 42.5413 449.165 41.304 455.992 41.304C463.501 41.304 469.987 42.584 475.448 45.144C480.995 47.704 486.029 51.416 490.552 56.28L476.6 69.848C474.211 67.1173 471.352 64.856 468.024 63.064C464.696 61.1867 460.728 60.248 456.12 60.248C452.109 60.248 448.355 60.9307 444.856 62.296C441.443 63.6613 438.456 65.624 435.896 68.184C433.336 70.744 431.331 73.816 429.88 77.4C428.429 80.8987 427.704 84.824 427.704 89.176C427.704 93.528 428.429 97.496 429.88 101.08C431.331 104.579 433.336 107.608 435.896 110.168C438.456 112.728 441.443 114.691 444.856 116.056C448.355 117.421 452.109 118.104 456.12 118.104C460.984 118.104 465.208 117.123 468.792 115.16C472.376 113.197 475.619 110.381 478.52 106.712L492.728 120.152ZM503.293 72.28H521.213V80.216H522.493C524.2 77.4853 526.632 75.1813 529.789 73.304C532.946 71.4267 536.445 70.488 540.285 70.488C542.589 70.488 544.594 70.7867 546.301 71.384C548.008 71.896 549.416 72.4933 550.525 73.176L545.533 90.072C544.424 89.4747 543.229 89.0053 541.949 88.664C540.754 88.3227 539.176 88.152 537.213 88.152C532.434 88.152 528.765 89.816 526.205 93.144C523.73 96.472 522.493 100.824 522.493 106.2V135H503.293V72.28ZM584.501 70.232C589.365 70.232 593.845 71.0853 597.941 72.792C602.122 74.4133 605.706 76.7173 608.693 79.704C611.765 82.6053 614.112 86.104 615.733 90.2C617.44 94.296 618.293 98.776 618.293 103.64C618.293 108.504 617.44 112.984 615.733 117.08C614.112 121.176 611.765 124.717 608.693 127.704C605.706 130.605 602.122 132.909 597.941 134.616C593.845 136.237 589.365 137.048 584.501 137.048C579.637 137.048 575.114 136.237 570.933 134.616C566.837 132.909 563.253 130.605 560.181 127.704C557.194 124.717 554.848 121.176 553.141 117.08C551.52 112.984 550.709 108.504 550.709 103.64C550.709 98.776 551.52 94.296 553.141 90.2C554.848 86.104 557.194 82.6053 560.181 79.704C563.253 76.7173 566.837 74.4133 570.933 72.792C575.114 71.0853 579.637 70.232 584.501 70.232ZM584.501 119.128C586.464 119.128 588.298 118.787 590.005 118.104C591.797 117.336 593.376 116.312 594.741 115.032C596.106 113.667 597.173 112.045 597.941 110.168C598.709 108.205 599.093 106.029 599.093 103.64C599.093 101.251 598.709 99.1173 597.941 97.24C597.173 95.3627 596.106 93.7413 594.741 92.376C593.376 91.0107 591.797 89.9867 590.005 89.304C588.298 88.536 586.464 88.152 584.501 88.152C582.538 88.152 580.661 88.536 578.869 89.304C577.162 89.9867 575.626 91.0107 574.261 92.376C572.896 93.7413 571.829 95.3627 571.061 97.24C570.293 99.1173 569.909 101.251 569.909 103.64C569.909 106.029 570.293 108.205 571.061 110.168C571.829 112.045 572.896 113.667 574.261 115.032C575.626 116.312 577.162 117.336 578.869 118.104C580.661 118.787 582.538 119.128 584.501 119.128ZM654.274 137.048C649.922 137.048 646.082 136.536 642.754 135.512C639.426 134.488 636.525 133.165 634.05 131.544C631.661 129.837 629.655 127.917 628.034 125.784C626.413 123.565 625.175 121.347 624.322 119.128L641.602 111.832C642.797 114.733 644.461 116.867 646.594 118.232C648.727 119.512 651.287 120.152 654.274 120.152C656.834 120.152 658.797 119.768 660.162 119C661.613 118.147 662.338 117.08 662.338 115.8C662.338 114.349 661.655 113.24 660.29 112.472C658.925 111.619 656.749 110.851 653.762 110.168L645.186 108.376C643.138 107.949 641.047 107.267 638.914 106.328C636.781 105.389 634.818 104.152 633.026 102.616C631.234 101.08 629.783 99.288 628.674 97.24C627.565 95.1067 627.01 92.6747 627.01 89.944C627.01 86.9573 627.65 84.2693 628.93 81.88C630.295 79.4053 632.13 77.3147 634.434 75.608C636.738 73.9013 639.469 72.5787 642.626 71.64C645.783 70.7013 649.239 70.232 652.994 70.232C659.479 70.232 665.069 71.384 669.762 73.688C674.455 75.9067 677.997 79.6613 680.386 84.952L663.874 91.736C662.765 89.5173 661.186 87.896 659.138 86.872C657.175 85.848 655.17 85.336 653.122 85.336C650.903 85.336 649.111 85.72 647.746 86.488C646.381 87.256 645.698 88.1947 645.698 89.304C645.698 90.4987 646.381 91.48 647.746 92.248C649.197 92.9307 650.946 93.528 652.994 94.04L662.722 96.344C669.122 97.88 673.901 100.355 677.058 103.768C680.215 107.181 681.794 111.192 681.794 115.8C681.794 118.616 681.111 121.304 679.746 123.864C678.466 126.424 676.589 128.685 674.114 130.648C671.725 132.611 668.823 134.147 665.41 135.256C662.082 136.451 658.37 137.048 654.274 137.048ZM717.899 137.048C713.547 137.048 709.707 136.536 706.379 135.512C703.051 134.488 700.15 133.165 697.675 131.544C695.286 129.837 693.28 127.917 691.659 125.784C690.038 123.565 688.8 121.347 687.947 119.128L705.227 111.832C706.422 114.733 708.086 116.867 710.219 118.232C712.352 119.512 714.912 120.152 717.899 120.152C720.459 120.152 722.422 119.768 723.787 119C725.238 118.147 725.963 117.08 725.963 115.8C725.963 114.349 725.28 113.24 723.915 112.472C722.55 111.619 720.374 110.851 717.387 110.168L708.811 108.376C706.763 107.949 704.672 107.267 702.539 106.328C700.406 105.389 698.443 104.152 696.651 102.616C694.859 101.08 693.408 99.288 692.299 97.24C691.19 95.1067 690.635 92.6747 690.635 89.944C690.635 86.9573 691.275 84.2693 692.555 81.88C693.92 79.4053 695.755 77.3147 698.059 75.608C700.363 73.9013 703.094 72.5787 706.251 71.64C709.408 70.7013 712.864 70.232 716.619 70.232C723.104 70.232 728.694 71.384 733.387 73.688C738.08 75.9067 741.622 79.6613 744.011 84.952L727.499 91.736C726.39 89.5173 724.811 87.896 722.763 86.872C720.8 85.848 718.795 85.336 716.747 85.336C714.528 85.336 712.736 85.72 711.371 86.488C710.006 87.256 709.323 88.1947 709.323 89.304C709.323 90.4987 710.006 91.48 711.371 92.248C712.822 92.9307 714.571 93.528 716.619 94.04L726.347 96.344C732.747 97.88 737.526 100.355 740.683 103.768C743.84 107.181 745.419 111.192 745.419 115.8C745.419 118.616 744.736 121.304 743.371 123.864C742.091 126.424 740.214 128.685 737.739 130.648C735.35 132.611 732.448 134.147 729.035 135.256C725.707 136.451 721.995 137.048 717.899 137.048ZM803.284 135V60.504H789.844C787.284 60.504 785.279 61.3573 783.828 63.064C782.463 64.7707 781.78 67.0747 781.78 69.976V72.28H795.604V88.408H781.78V135H762.58V88.408H751.572V72.28H762.58V70.488C762.58 52.056 771.625 42.84 789.716 42.84H822.484V135H803.284ZM866.376 70.232C871.24 70.232 875.72 71.0853 879.816 72.792C883.997 74.4133 887.581 76.7173 890.568 79.704C893.64 82.6053 895.987 86.104 897.608 90.2C899.315 94.296 900.168 98.776 900.168 103.64C900.168 108.504 899.315 112.984 897.608 117.08C895.987 121.176 893.64 124.717 890.568 127.704C887.581 130.605 883.997 132.909 879.816 134.616C875.72 136.237 871.24 137.048 866.376 137.048C861.512 137.048 856.989 136.237 852.808 134.616C848.712 132.909 845.128 130.605 842.056 127.704C839.069 124.717 836.723 121.176 835.016 117.08C833.395 112.984 832.584 108.504 832.584 103.64C832.584 98.776 833.395 94.296 835.016 90.2C836.723 86.104 839.069 82.6053 842.056 79.704C845.128 76.7173 848.712 74.4133 852.808 72.792C856.989 71.0853 861.512 70.232 866.376 70.232ZM866.376 119.128C868.339 119.128 870.173 118.787 871.88 118.104C873.672 117.336 875.251 116.312 876.616 115.032C877.981 113.667 879.048 112.045 879.816 110.168C880.584 108.205 880.968 106.029 880.968 103.64C880.968 101.251 880.584 99.1173 879.816 97.24C879.048 95.3627 877.981 93.7413 876.616 92.376C875.251 91.0107 873.672 89.9867 871.88 89.304C870.173 88.536 868.339 88.152 866.376 88.152C864.413 88.152 862.536 88.536 860.744 89.304C859.037 89.9867 857.501 91.0107 856.136 92.376C854.771 93.7413 853.704 95.3627 852.936 97.24C852.168 99.1173 851.784 101.251 851.784 103.64C851.784 106.029 852.168 108.205 852.936 110.168C853.704 112.045 854.771 113.667 856.136 115.032C857.501 116.312 859.037 117.336 860.744 118.104C862.536 118.787 864.413 119.128 866.376 119.128ZM903.012 72.28H925.028L933.604 107.608H934.884L946.02 72.28H965.732L976.74 107.608H978.02L986.468 72.28H1008.23L988.26 135H967.268L956.132 99.672H954.852L943.844 135H922.98L903.012 72.28Z" fill="#E9E9E9"/>
<path d="M113.498 179.991C110.042 179.934 106.609 179.947 103.197 179.961C95.7765 179.991 88.4535 180.02 81.2032 179.311C41.7829 175.457 7.72953 145.407 1.25653 104.369C-2.89004 78.0802 3.17917 54.2214 20.1634 33.6655C36.5838 13.7921 57.1965 2.67888 83.0764 0.76474C88.9462 0.330605 95.1478 0.0156994 101.039 0.0163044C120.031 0.0182329 139.357 0.0175874 158.571 0.0169457C166.423 0.0166834 174.258 0.0164218 182.043 0.0163367C184.323 0.0163118 185.769 2.45952 184.673 4.4588L161.662 46.4194C159.417 50.1616 156.423 52.4575 149.687 52.4069C144.222 52.3658 139.176 52.3804 134.061 52.3952C130.384 52.4059 126.672 52.4166 122.744 52.4069C118.662 52.3967 114.553 52.4085 110.438 52.4203C104.548 52.4373 98.6481 52.4542 92.8061 52.4069C79.8608 52.3019 69.2492 59.9631 62.0207 70.7663C54.9136 81.3883 54.1516 92.8657 59.7314 104.331C65.5194 116.223 75.3611 123.237 88.589 123.676C107.378 124.299 126.214 124.351 145.004 123.798C155.551 123.488 163.955 117.928 169.366 108.722C176.517 96.5568 183.615 84.3605 190.713 72.1641C200.307 55.6805 209.9 39.197 219.623 22.7907C228.337 8.08889 241.991 0.671205 258.764 0.324254C275.818 -0.0285526 292.803 -0.0101865 309.769 0.00816097C313.54 0.0122384 317.31 0.0163149 321.079 0.0163164C324.064 0.0325439 337.945 0.0251806 350.848 0.0183356C357.867 0.0146123 364.597 0.0110424 369.126 0.0115062C371.413 0.0117403 372.856 2.45145 371.739 4.44661C365.42 15.7357 349.081 44.9056 347.275 47.9162C345.029 51.6584 342.035 53.9037 335.3 53.9037C333.752 53.9037 330.834 53.8883 327.009 53.8681C314.183 53.8003 291.162 53.6785 275.425 53.9037C266.708 54.0285 259.535 58.0694 254.106 64.4672C252.573 66.273 253.97 68.8725 256.339 68.8725H330.178C332.471 68.8725 333.916 71.3397 332.795 73.3395L307.642 118.207C307.619 118.249 307.597 118.289 307.575 118.331C307.241 118.965 304.3 124.257 299.375 124.257H224C224 124.257 218.5 124.257 216 128.5C190.234 172.822 170.669 179.992 122.578 179.992L113.498 179.991Z" fill="white"/>
</svg>
